#!OML:ASF H:\Male1\Project 1\Capture day 1\Session 1\Male1.ASF
:FULLY-SPECIFIED
:DEGREES
293
root 22.1712 16.7206 0.788412 -45.2509 76.3055 -41.0307
lowerback 18.7874 1.49935 -1.81942
upperback 7.30552 2.02889 -0.615126
thorax -2.69362 1.16023 -0.0455696
lowerneck -12.1445 6.81527 11.4133
upperneck 13.8192 8.90306 -10.2519
head 7.20703 4.08616 -4.28263
rclavicle 3.57812e-014 -1.27222e-014
rhumerus -65.3062 17.3677 -70.3748
rradius 96.5592
rwrist -26.8118
rhand -15.0684 4.09033
rfingers 7.12502
rthumb 11.0988 -25.5962
lclavicle 3.57812e-014 -1.27222e-014
lhumerus -51.0475 -3.83251 52.0594
lradius 69.2611
lwrist 22.1422
lhand -28.6707 16.4356
lfingers 7.12502
lthumb -2.03364 46.4057
rfemur -34.4391 -2.10659 25.274
rtibia 67.3893
rfoot -6.93443 -10.4197
rtoes -33.8229
lfemur 0.251126 -4.50594 -14.7077
ltibia 30.1746
lfoot -13.3154 16.2108
ltoes -4.46744
294
root 22.3149 16.746 0.825269 -45.6228 77.0045 -41.3609
lowerback 19.4268 1.59277 -2.3213
upperback 7.39522 2.05859 -0.784935
thorax -2.93448 1.17969 0.0337512
lowerneck -11.9309 6.57755 11.1855
upperneck 13.3833 8.65968 -10.5697
head 7.00585 3.94256 -4.38418
rclavicle 1.03368e-014 2.54444e-014
rhumerus -65.0533 15.8354 -72.2402
rradius 94.3255
rwrist -29.7298
rhand -17.1935 3.80419
rfingers 7.12502
rthumb 9.04861 -25.9817
lclavicle 1.03368e-014 2.54444e-014
lhumerus -49.8695 -2.69272 53.0555
lradius 66.8983
lwrist 20.127
lhand -28.1289 16.2679
lfingers 7.12502
lthumb -1.51043 46.2423
rfemur -34.338 -2.40249 25.1477
rtibia 67.1517
rfoot -8.00538 -11.4773
rtoes -33.2996
lfemur -1.619 -7.81071 -15.4331
ltibia 28.1655
lfoot -16.6776 20.709
ltoes -7.71081
295
root 22.4657 16.7308 0.866001 -45.5608 77.4401 -41.513
lowerback 19.8 1.79386 -2.80693
upperback 7.38027 2.2245 -0.829643
thorax -3.15728 1.26087 0.211691
lowerneck -12.2821 6.34012 10.6474
upperneck 13.6127 8.42056 -10.5599
head 7.08872 3.79076 -4.31485
rclavicle 1.03368e-014 9.54166e-015
rhumerus -64.4536 14.5732 -73.8049
rradius 92.1641
rwrist -31.8436
rhand -19.0585 2.91141
rfingers 7.12502
rthumb 7.24869 -26.9444
lclavicle 1.03368e-014 9.54166e-015
lhumerus -48.562 -1.66038 54.305
lradius 64.306
lwrist 18.5126
lhand -26.9879 16.5379
lfingers 7.12502
lthumb -0.408409 46.5173
rfemur -34.6659 -2.14657 25.1802
rtibia 67.1683
rfoot -9.17417 -12.7678
rtoes -31.959
lfemur -3.37526 -10.9501 -15.6621
ltibia 25.4505
lfoot -19.0785 25.3954
ltoes -9.97798
296
root 22.6206 16.6646 0.904313 -44.446 77.7455 -40.8219
lowerback 19.7969 1.99127 -3.34038
upperback 7.31329 2.37452 -0.938454
thorax -3.24311 1.3303 0.362538
lowerneck -12.5158 6.20526 10.2566
upperneck 13.8075 8.30283 -10.53
head 7.16055 3.7091 -4.25101
rclavicle -1.51076e-014 4.6118e-014
rhumerus -63.5801 13.4939 -75.2603
rradius 90.1399
rwrist -31.9082
rhand -20.6942 1.08255
rfingers 7.12502
rthumb 5.6696 -28.8216
lclavicle -1.51076e-014 4.6118e-014
lhumerus -47.3085 -0.540576 55.4563
lradius 61.7359
lwrist 17.5013
lhand -25.2152 17.457
lfingers 7.12502
lthumb 1.30377 47.4327
rfemur -35.3054 -1.4835 25.1026
rtibia 67.3256
rfoot -9.94817 -13.8778
rtoes -31.8872
lfemur -5.47325 -13.0154 -15.5962
ltibia 23.0327
lfoot -20.9015 25.9301
ltoes -9.1101
297
root 22.7756 16.5433 0.936632 -44.7761 77.5923 -41.212
lowerback 19.953 2.05291 -3.25865
upperback 7.37001 2.46674 -1.0589
thorax -3.25675 1.38103 0.163358
lowerneck -11.7536 6.1 10.9054
upperneck 13.0704 8.17736 -11.3097
head 6.83958 3.65232 -4.64332
rclavicle 7.15625e-015 -9.54166e-015
rhumerus -62.3807 12.4238 -76.757
rradius 88.2101
rwrist -30.434
rhand -21.9291 1.82815
rfingers 7.12502
rthumb 4.47722 -28.1045
lclavicle 7.15625e-015 -9.54166e-015
lhumerus -46.1026 0.710243 56.3165
lradius 59.2552
lwrist 17.0631
lhand -23.4155 18.2153
lfingers 7.12502
lthumb 3.04181 48.1734
rfemur -35.5241 -0.627812 25.5173
rtibia 67.6807
rfoot -11.0292 -14.7928
rtoes -27.7548
lfemur -6.92583 -13.9629 -15.0593
ltibia 21.0714
lfoot -21.9016 24.628
ltoes -14.0217
298
root 22.9367 16.3821 0.960258 -46.8613 77.0316 -43.219
lowerback 19.8298 1.94362 -2.42802
upperback 7.61114 2.50203 -1.12332
thorax -2.90442 1.41264 -0.370565
lowerneck -12.8564 6.32734 9.95584
upperneck 14.1164 8.43997 -10.0601
head 7.3003 3.78212 -4.02302
rclavicle -2.38542e-015 -1.59028e-014
rhumerus -61.088 11.5779 -78.1214
rradius 86.8179
rwrist -28.8087
rhand -22.8453 4.42272
rfingers 7.12502
rthumb 3.59248 -25.5267
lclavicle -2.38542e-015 -1.59028e-014
lhumerus -44.756 2.06726 57.0513
lradius 56.7436
lwrist 17.1333
lhand -22.078 17.6807
lfingers 7.12502
lthumb 4.33344 47.6164
rfemur -35.5368 0.250838 26.5166
rtibia 68.1561
rfoot -11.8461 -15.4985
rtoes -32.4356
lfemur -8.16866 -14.8161 -14.0503
ltibia 20.1821
lfoot -22.1791 23.1172
ltoes -16.2212
299
root 23.0944 16.1539 0.982398 -44.901 77.2497 -40.7714
lowerback 19.8465 1.98435 -2.97987
upperback 7.97185 2.48266 -1.41472
thorax -2.52919 1.40807 -0.354821
lowerneck -12.36 6.494 10.6363
upperneck 13.4167 8.70156 -11.077
head 7.0959 3.88304 -4.44853
rclavicle -4.85035e-014 4.45278e-014
rhumerus -59.5121 11.1614 -79.3537
rradius 85.7998
rwrist -27.7831
rhand -24.0004 5.70208
rfingers 7.12502
rthumb 2.47696 -24.2633
lclavicle -4.85035e-014 4.45278e-014
lhumerus -43.4149 3.60479 57.8468
lradius 54.1724
lwrist 17.44
lhand -20.9958 16.5107
lfingers 7.12502
lthumb 5.37838 46.4225
rfemur -35.7679 1.03175 26.164
rtibia 69.2454
rfoot -13.0722 -15.8394
rtoes -33.8019
lfemur -8.75052 -15.5787 -14.6793
ltibia 20.1193
lfoot -22.18 22.6187
ltoes -18.7713
300
root 23.2471 15.8687 1.00978 -47.5837 76.0548 -42.7545
lowerback 20.9301 2.02358 -1.8213
upperback 7.74205 2.70677 -1.25942
thorax -3.29566 1.5349 -0.946757
lowerneck -12.4616 6.58132 10.9882
upperneck 14.3977 8.84863 -11.082
head 7.46334 3.96356 -4.49395
rclavicle -2.54444e-014 -3.18055e-015
rhumerus -59.0746 10.7895 -80.5555
rradius 85.5532
rwrist -27.3858
rhand -24.9857 5.80029
rfingers 7.12502
rthumb 1.52539 -24.174
lclavicle -2.54444e-014 -3.18055e-015
lhumerus -42.6947 4.156 58.6659
lradius 51.5358
lwrist 17.6985
lhand -20.3908 15.8223
lfingers 7.12502
lthumb 5.96252 45.7184
rfemur -35.6698 2.15818 27.8312
rtibia 70.2827
rfoot -13.5533 -16.5674
rtoes -34.5877
lfemur -9.64461 -15.3101 -13.5543
ltibia 22.5482
lfoot -22.1164 20.2895
ltoes -14.9591
301
root 23.3906 15.5656 1.03353 -47.1472 76.1522 -41.5041
lowerback 22.1529 1.99493 -2.10278
upperback 7.16845 2.52428 -1.48638
thorax -4.53553 1.43706 -1.05589
lowerneck -10.6362 6.59306 11.8489
upperneck 14.0507 8.91913 -11.3093
head 7.08808 4.09238 -4.74345
rclavicle 8.74653e-015 1.11319e-014
rhumerus -59.1617 10.8992 -81.7843
rradius 85.7132
rwrist -27.2126
rhand -25.3722 5.58868
rfingers 7.12502
rthumb 1.15207 -24.388
lclavicle 8.74653e-015 1.11319e-014
lhumerus -42.6243 4.39032 59.2987
lradius 48.6658
lwrist 17.4232
lhand -20.431 15.5584
lfingers 7.12502
lthumb 5.92368 45.4556
rfemur -35.8575 2.49168 27.8547
rtibia 71.7017
rfoot -13.1982 -17.046
rtoes -33.3226
lfemur -11.3498 -14.5912 -14.1861
ltibia 26.8437
lfoot -18.491 17.1184
ltoes -13.8163
302
root 23.5012 15.3514 1.06491 -44.5445 77.1443 -38.5629
lowerback 21.2094 1.92934 -3.75132
upperback 7.75768 2.18649 -1.66841
thorax -3.45798 1.26665 -0.179891
lowerneck -9.79693 6.7748 12.983
upperneck 13.1776 9.20807 -12.57
head 6.81529 4.22995 -5.33283
rclavicle -1.66979e-014 3.02153e-014
rhumerus -56.9951 11.0365 -82.2353
rradius 85.6404
rwrist -27.0249
rhand -25.2684 5.28977
rfingers 7.12502
rthumb 1.25231 -24.6863
lclavicle -1.66979e-014 3.02153e-014
lhumerus -40.5726 6.21108 60.4468
lradius 44.9342
lwrist 15.8164
lhand -21.1004 15.2306
lfingers 7.12502
lthumb 5.27741 45.1449
rfemur -36.3791 2.52287 26.9575
rtibia 72.7016
rfoot -12.6318 -17.8458
rtoes -32.3361
lfemur -13.9412 -11.332 -15.7473
ltibia 32.0307
lfoot -15.045 15.5756
ltoes -2.10693
